<svg width="49" height="30" viewBox="0 0 49 30" fill="none" xmlns="http://www.w3.org/2000/svg">
<path d="M2.36 30C1.72 30 1.2 29.8133 0.8 29.44C0.426667 29.04 0.24 28.5467 0.24 27.96V4.04C0.24 3.45333 0.44 2.97333 0.84 2.6C1.24 2.2 1.72 2 2.28 2H15.8C16.3867 2 16.8667 2.18666 17.24 2.56C17.64 2.93333 17.84 3.4 17.84 3.96C17.84 4.46667 17.64 4.90667 17.24 5.28C16.8667 5.65333 16.3867 5.84 15.8 5.84H4.12L4.4 5.44V14.36L4.16 13.88H14C14.5867 13.88 15.0667 14.0667 15.44 14.44C15.84 14.8133 16.04 15.28 16.04 15.84C16.04 16.3467 15.84 16.7867 15.44 17.16C15.0667 17.5333 14.5867 17.72 14 17.72H4.08L4.4 17.4V27.96C4.4 28.5467 4.2 29.04 3.8 29.44C3.4 29.8133 2.92 30 2.36 30Z" fill="#0BAF9A"/>
<path d="M24.6591 30C24.0991 30 23.6191 29.8133 23.2191 29.44C22.8457 29.04 22.6591 28.5467 22.6591 27.96V2.44C22.6591 1.85333 22.8457 1.37333 23.2191 0.999999C23.6191 0.599999 24.0991 0.4 24.6591 0.4C25.2457 0.4 25.7257 0.599999 26.0991 0.999999C26.4724 1.37333 26.6591 1.85333 26.6591 2.44V27.96C26.6591 28.5467 26.4724 29.04 26.0991 29.44C25.7257 29.8133 25.2457 30 24.6591 30ZM37.6991 8.88C38.2057 8.88 38.6457 9.09333 39.0191 9.52C39.3924 9.94667 39.5791 10.3733 39.5791 10.8C39.5791 11.3333 39.3257 11.8267 38.8191 12.28L26.2991 23.48L26.1391 18.88L36.2191 9.52C36.6457 9.09333 37.1391 8.88 37.6991 8.88ZM38.1791 29.96C37.6191 29.96 37.1391 29.7333 36.7391 29.28L28.7391 20.84L31.7791 18.04L39.5791 26.48C40.0057 26.9333 40.2191 27.44 40.2191 28C40.2191 28.5867 39.9791 29.0667 39.4991 29.44C39.0457 29.7867 38.6057 29.96 38.1791 29.96ZM46.1638 29.96C45.4971 29.96 44.9771 29.7733 44.6038 29.4C44.2571 29.0267 44.0838 28.5067 44.0838 27.84V27.12C44.0838 26.4533 44.2571 25.9333 44.6038 25.56C44.9771 25.1867 45.4971 25 46.1638 25H46.6038C47.2704 25 47.7771 25.1867 48.1238 25.56C48.4704 25.9333 48.6438 26.4533 48.6438 27.12V27.84C48.6438 28.5067 48.4704 29.0267 48.1238 29.4C47.7771 29.7733 47.2704 29.96 46.6038 29.96H46.1638Z" fill="black"/>
</svg>
